<svg xmlns="http://www.w3.org/2000/svg" xmlns:xlink="http://www.w3.org/1999/xlink" viewBox="0 0 42.018 44.979"><defs><style>.a{fill:url(#a);}.b{fill:url(#b);}.c{fill:url(#c);}.d{fill:url(#d);}.e{fill:url(#e);}.f{fill:url(#f);}.g{fill:url(#g);}.h{fill:url(#h);}.i{fill:url(#i);}.j{fill:#fff;opacity:0.3;}</style><linearGradient id="a" x1="0.5" y1="0.986" x2="0.5" y2="-0.128" gradientUnits="objectBoundingBox"><stop offset="0.006" stop-color="#96cfc2"/><stop offset="0.5" stop-color="#15b0a2"/><stop offset="1" stop-color="#00977b"/></linearGradient><linearGradient id="b" x1="0.5" y1="0.994" x2="0.5" y2="-0.048" gradientUnits="objectBoundingBox"><stop offset="0" stop-color="#e96da5"/><stop offset="0.5" stop-color="#e40082"/><stop offset="1" stop-color="#cf0082"/></linearGradient><linearGradient id="c" x1="0.5" y1="0.985" x2="0.5" y2="-0.129" gradientUnits="objectBoundingBox"><stop offset="0" stop-color="#efef5d"/><stop offset="0.5" stop-color="#ebe200"/><stop offset="1" stop-color="#cdc100"/></linearGradient><linearGradient id="d" x1="0.996" y1="0.34" x2="-0.054" y2="0.678" xlink:href="#a"/><linearGradient id="e" x1="0.997" y1="0.331" x2="-0.014" y2="0.674" xlink:href="#b"/><linearGradient id="f" x1="1.004" y1="0.343" x2="-0.25" y2="0.734" xlink:href="#c"/><linearGradient id="g" x1="0.012" y1="0.346" x2="0.678" y2="0.556" xlink:href="#a"/><linearGradient id="h" x1="-0.007" y1="0.332" x2="1.111" y2="0.702" xlink:href="#b"/><linearGradient id="i" x1="-0.004" y1="0.331" x2="1.173" y2="0.725" xlink:href="#c"/></defs><g transform="translate(-527.473 -580.098)"><path class="a" d="M533.84,595.264v.02l14.955,8.635,14.957-8.635v-.016l-14.957-8.639Z"/><path class="b" d="M533.84,593.192v.02l14.955,8.635,14.957-8.635v-.02l-14.957-8.635Z"/><path class="c" d="M533.84,591.118v.02l14.955,8.635,14.957-8.635v-.02l-14.957-8.635Z"/><path class="d" d="M548.514,621.842l.016-.01-.027-17.27-14.969-8.615-.016.008.025,17.271Z"/><path class="e" d="M546.717,622.881l.018-.01-.025-17.27-14.969-8.613-.014.01.021,17.27Z"/><path class="f" d="M544.924,623.92l.014-.01-.023-17.268-14.971-8.615-.012.008.023,17.273Z"/><path class="g" d="M549.133,621.842l-.016-.01.027-17.27,14.969-8.615.014.008-.023,17.271Z"/><path class="h" d="M550.93,622.881l-.018-.01.025-17.27,14.969-8.613.014.01-.019,17.27Z"/><path class="i" d="M552.723,623.92l-.014-.01.023-17.268,14.969-8.615.016.008-.025,17.273Z"/><path class="j" d="M533.84,588.733v.019l14.955,8.635,14.957-8.635v-.016L548.795,580.1Z"/><path class="j" d="M554.559,625.065l.019.012,14.912-8.709-.084-17.27-.016-.01L554.477,607.8Z"/><path class="j" d="M542.4,625.065l-.016.012-14.914-8.709.086-17.27.016-.01,14.914,8.709Z"/></g></svg>